<svg id="Mask" xmlns="http://www.w3.org/2000/svg" viewBox="0 0 2871.71 1563.83"><defs><style>.cls-1{fill:#7c7c7b;}</style></defs><title>mask</title><path id="Hood" class="cls-1" d="M1056.91,406.79s40.23,7.43,70.16,39.35,50.26,136.5,51.66,147.43c2.22,17.29-4.66,34-21.62,41s-128.91,6.43-161.28,5.1c-30.93-2-91.34-3.88-103.86-4.55s-39.57-2.88-47.55-10.86c-3.36-3.35-8.6-6.59-11.76-12.3-4.35-7.88-4.43-16-4.21-22.17-3.32-.22-13.74,6-19.29,14.85-8,12.91-7.09,32,10.87,43.23,13.16,8.21,33.06,11,51.78,12.66,24.75,2.26,49.68,1.94,76.36,2.65,37.91,1,277,3.33,277,3.33l.35-6.55-36.93-205.3s64.84-25.93,167.59-26.93,258.39,4,258.39,4,32,3.33,33-18.62c-1.11-8-10.42-9.53-16.07-12.3-11.36-6-22.07-14.47-40.88-21.81-36.82-14.38-96.16-27.43-192.57-30.07-81.21-2.23-157.85-.87-218,7-47.75,6.27-84.79,17.4-108.18,28.87C1044.38,398.7,1056.91,406.79,1056.91,406.79Z"/><path class="cls-1" d="M2707.87,763.68s1.77,3.25-1.89,3.92c-1.16.21-5,.72-10.67,1.42-2.08.25-3.41,2.93-6,3.23-12.64,1.5-31.61,1.1-50.55,3-5.32-2-10.3-32.92-68.83-38.24-2.33-4.66-2-13.64,5.32-15,7-1.27,91.41,2,124.45,14.36-5.13-12.84-12.71-25.78-22.87-27.72-21-4-32-6-32-6s-38.57-20.78-119.56-29.21c-23.61-2.45-49.75-4.69-80.44-3.79-23-2-49-8-49-8s-2-16-27-17-84-10-84-10l-41-12s-56-29-128-27c-72-3-314-2-314-2,4.1,4.14,4.5,3,18.28,20.55l1,.9c3.48-8,5.93-14.74,7.53-13.14,1.4,1.4,6.44-1.16,8.65,5.32,1.79,5.24-1.63,5.8-1,12.31,3.65,4.49,3.52,15.32,3.66,18.73-1.18.11-.9,2.08-1.84,3.1a14.12,14.12,0,0,0-1.48,2.11c-1.79,1.79-6.93,5.49-14.73,7.33-5.23,1-9.66,1.65-15.24.69-.27,0-2.79,0-3.07,0-.65,1-3.54,9.23-6.2,12.2-1.49,3.63,36.8-5.44,43.45-11.42,3-2.66,3.42-6.57,3-10,4,2.65,8.61,6.52,7.71,12.87-.51,3.62-11.31,14-40.57,16.62-4.25,5.33,24.93,5.82,25.62,6.32,4.15,3.4,2.32,9.23-.34,10-5,1.33-18,0-39.57,2s-32.59-3.33-29.93-7,11-4.32,11-4.32a93.56,93.56,0,0,0,1.88-11.75c.17-1.94-.6-2.2-.55-4.54.11-5.44.22-5.1.33-10.09,0-.07.76-12.13.77-12.2-5.78-3.74-9.22-7.1-15.62-13.63-16.41-23.05-33.35-46-50.54-69.61s-37.71-53.9-48.74-77.72c-9-19.4-13.27-35.72-12.12-43.77-10.42,8.43-22.58,5.91-25.06,6-4.9.14,118.87,186,144.55,225.9,2.43,3.78,1.8,7.93,2.34,8.77a.23.23,0,0,1-.19.34l-448,13.18s-40-19.4-95.37-20.77c-2.85-.07-5.73-2.21-8.63-2.23-32.95-1.06-301-4-301-4s-69-2-83-7c-11.85-4.23-29.32-7.54-33.51-28.43-.76-3.81-.12-8.2,0-13.29,0-10,16.17-21.28,16.17-21.28l-166.7,5s-247,16-257,19a117.82,117.82,0,0,0-2,35s-59,21-86,47c-58,4-115.11,8.83-117,10s-19.24,30.22-.24,119.22c3.09,36.45,4.83,63.08,8.24,69.78s11,12,15,21,25,84,25,84,116,5,191,4,93.07-.11,104,2,34,12,34,29c-.14,5,2.1,7.32-4,12s-16,13-55,13-223,2-223,2,19,21,69,28c20.1,2.82,50.27,5.82,78.8,7.15,42.41,2,83.42,1.45,91.2.85,26.68-1.64,40.81-21.13,54.27-36.1,17.21-17.54,58.51-93.12,101.05-152.09,19.55-27.1,41.42-55,62.36-71.51,40.86-34.45,120-48,193.66-46.11,48.64,1.25,94.48,9,124.35,27.94C1126,863.12,1148.36,913,1159,943.62c6.23,17.91,17.74,56.25,22.63,88.83,3.45,23.07,3.09,41.25,4.24,49.23,4,28-5,58,39,64,9.82,1.34,66.09-1.11,136.66-2.67,197.57-4.38,557.08-14.48,690-21.47,9.38-.5,12.3-8.72,19.28-9.09,17.09-.9,20-3.77,20-3.77s19.11,1.49,40.29-10c7.58-4.11,17.68-12.62,25.71-20,13.62-12.56,24.38-32.23,38-56.35,44-78,108-221.65,210-236.65,73-15.09,117-16,166,4s69,117,69,117,16,61,2,83,27-22,33-31c9.16-9.51,16-24,16-24l2-11s23-62,31-101S2707.87,763.68,2707.87,763.68ZM707,659.19c-32.36,6.21-91.78.89-91.78.89C652,645.89,707,653,707,653S714.06,654.31,707,659.19Zm74.6-50.88c-.66,2-12.66,3.14-29.93,5.65s-27.26,3.33-28.93,1-5-10.31-2.66-12.63,11-3.51,29.28-5.58,28.59-3.07,30.58-1.74S782.23,606.32,781.56,608.31Zm569,170.6c-3.32,0-53.85,1-61.84,1s-9.55,2.82-11.35,3.11c-3.58.59-5.74-.11-13.27-.11-5.56,0-15.6.51-20.62-.69-5.19-1.24-5.3-4.25-6.65-7.3-2.66-6,4.66-12,9.31-12s22.62-1.33,29.93-.66,6.65,4,6.65,4,62.52,3.32,71.17,2.66,13.63,0,15.63,4.65S1353.87,778.91,1350.54,778.91Zm645.3-94.11c-6,.66-5.91-1.17-8.57-2.83s-2.57-6.15,1.42-10.48c-1-4.32,4.24-6.89,6-7s5,2.66,6.31,8.65c1.33,1,4.32,5,4.66,7.31S2001.82,684.13,1995.84,684.8Z"/></svg>
